<?xml version="1.0" encoding="utf-8"?>
<!-- Generator: Adobe Illustrator 24.0.2, SVG Export Plug-In . SVG Version: 6.00 Build 0)  -->
<svg version="1.1" id="Layer_1" xmlns="http://www.w3.org/2000/svg" xmlns:xlink="http://www.w3.org/1999/xlink" x="0px" y="0px"
	 viewBox="0 0 1400 980" style="enable-background:new 0 0 1400 980;" xml:space="preserve">
<style type="text/css">
	.st0{fill:#071120;}
	.st1{clip-path:url(#SVGID_2_);}
	.st2{fill:#FFFFFF;}
	.st3{fill:#F4F4F4;}
	.st4{fill:#CCCECE;}
	.st5{clip-path:url(#SVGID_4_);}
	.st6{fill:#FFFEFF;}
	.st7{clip-path:url(#SVGID_6_);fill:#FFFFFF;}
	.st8{clip-path:url(#SVGID_8_);}
	.st9{clip-path:url(#SVGID_10_);fill:#CCCECE;}
	.st10{clip-path:url(#SVGID_12_);}
	.st11{clip-path:url(#SVGID_14_);fill:#071120;}
	.st12{clip-path:url(#SVGID_16_);fill:#FFFFFF;}
	.st13{clip-path:url(#SVGID_18_);fill:#CCCECE;}
	.st14{clip-path:url(#SVGID_20_);}
	.st15{clip-path:url(#SVGID_22_);fill:#071120;}
	.st16{clip-path:url(#SVGID_24_);}
	.st17{clip-path:url(#SVGID_26_);}
	.st18{clip-path:url(#SVGID_28_);}
	.st19{fill:#9C9A9E;}
	.st20{fill:#E0C092;}
	.st21{clip-path:url(#SVGID_30_);}
	.st22{clip-path:url(#SVGID_35_);}
	.st23{clip-path:url(#SVGID_40_);}
	.st24{clip-path:url(#SVGID_41_);}
	.st25{clip-path:url(#SVGID_42_);fill:url(#SVGID_43_);}
	.st26{display:none;}
	.st27{display:inline;}
	.st28{opacity:0.69;clip-path:url(#SVGID_45_);fill:url(#SVGID_46_);enable-background:new    ;}
</style>
<rect x="971.4" y="226.4" class="st0" width="377.4" height="504.4"/>
<circle class="st0" cx="701.6" cy="274.7" r="94.6"/>
<g>
	<g>
		<g>
			<defs>
				<rect id="SVGID_1_" x="1.6" y="1" width="1400" height="980"/>
			</defs>
			<clipPath id="SVGID_2_">
				<use xlink:href="#SVGID_1_"  style="overflow:visible;"/>
			</clipPath>
			<g class="st1">
				<rect x="-9.3" y="457" class="st2" width="501.5" height="46"/>
				<rect x="133.1" y="218.7" class="st2" width="55.2" height="239.3"/>
				<rect x="229.2" y="293.9" class="st2" width="62.9" height="164.1"/>
				<rect x="292" y="278.5" class="st3" width="62.9" height="179.5"/>
				<rect x="138.2" y="228.1" class="st4" width="46" height="10.7"/>
				<rect x="237.4" y="305.6" class="st4" width="46" height="10.7"/>
				<rect x="237.4" y="437.4" class="st4" width="46" height="10.7"/>
				<rect x="300.5" y="294.9" class="st4" width="46" height="44.3"/>
				<rect x="138.2" y="436.7" class="st4" width="46" height="10.7"/>
				<rect x="354.5" y="250.9" class="st2" width="47.8" height="207.1"/>
				<rect x="359" y="259" class="st4" width="39.8" height="9.3"/>
				<rect x="359" y="439.5" class="st4" width="39.8" height="9.3"/>
				<rect x="77.9" y="273.9" class="st3" width="55.2" height="184.1"/>
				<rect x="39.5" y="247.9" class="st2" width="41.4" height="210.1"/>
				<rect x="401.7" y="247.9" class="st3" width="41.4" height="210.1"/>
				<rect x="188.3" y="247.9" class="st3" width="41.4" height="210.1"/>
				<rect x="199" y="258.6" class="st4" width="19.9" height="188.7"/>
				<rect x="50.3" y="258.6" class="st4" width="19.9" height="188.7"/>
				<rect x="86.3" y="298.5" class="st4" width="41.4" height="138"/>
			</g>
		</g>
	</g>
	<g>
		<g>
			<defs>
				<rect id="SVGID_3_" x="1.6" y="1" width="1400" height="980"/>
			</defs>
			<clipPath id="SVGID_4_">
				<use xlink:href="#SVGID_3_"  style="overflow:visible;"/>
			</clipPath>
			<g class="st5">
				<path class="st6" d="M958.3,212.9V738h399V212.9H958.3z M1334.3,715h-353V235.9h353V715z"/>
				<polygon class="st2" points="1102.3,653.9 1207.4,536.9 1226.9,556.4 1270.4,518.9 1335.8,590.9 1335.8,717.6 1113,716.9 				
					"/>
				<circle class="st2" cx="1204.4" cy="371.9" r="66"/>
				<polygon class="st2" points="979.6,717.9 1217.2,719.6 1042.3,501.9 1021.3,528.9 997.3,516.9 982.1,531.5 				"/>
			</g>
		</g>
	</g>
	<g>
		<g>
			<defs>
				<rect id="SVGID_5_" x="1.6" y="1" width="1400" height="980"/>
			</defs>
			<clipPath id="SVGID_6_">
				<use xlink:href="#SVGID_5_"  style="overflow:visible;"/>
			</clipPath>
			<rect x="-22.8" y="899.9" class="st7" width="1491.1" height="174"/>
		</g>
	</g>
	<g>
		<g>
			<defs>
				<rect id="SVGID_7_" x="1.6" y="1" width="1400" height="980"/>
			</defs>
			<clipPath id="SVGID_8_">
				<use xlink:href="#SVGID_7_"  style="overflow:visible;"/>
			</clipPath>
			<g class="st8">
				<rect x="660.3" y="807.5" class="st4" width="82.6" height="137.6"/>
				<path class="st3" d="M946.7,865.8H456.5c-21.5,0-39-17.5-39-39V450.2h568.2v376.6C985.7,848.3,968.2,865.8,946.7,865.8z"/>
				<path class="st2" d="M417.1,450v361.4H986V450H417.1z M970.1,797.5h-537V463.7h537V797.5z"/>
				<path class="st3" d="M824.3,952H578.9v-2.2c0-21.6,17.5-39.1,39.1-39.1h167.3c21.6,0,39.1,17.5,39.1,39.1L824.3,952L824.3,952z"
					/>
			</g>
		</g>
	</g>
	<g>
		<g>
			<defs>
				<rect id="SVGID_9_" x="1.6" y="1" width="1400" height="980"/>
			</defs>
			<clipPath id="SVGID_10_">
				<use xlink:href="#SVGID_9_"  style="overflow:visible;"/>
			</clipPath>
			<circle class="st9" cx="701.6" cy="838.5" r="14.7"/>
		</g>
	</g>
	<g>
		<g>
			<defs>
				<rect id="SVGID_11_" x="1.6" y="1" width="1400" height="980"/>
			</defs>
			<clipPath id="SVGID_12_">
				<use xlink:href="#SVGID_11_"  style="overflow:visible;"/>
			</clipPath>
			<g class="st10">
				<path class="st2" d="M701.6,170.9c-58,0-105,47-105,105s47,105,105,105s105-47,105-105S759.6,170.9,701.6,170.9z M701.6,365.2
					c-49.3,0-89.3-40-89.3-89.3s40-89.3,89.3-89.3s89.3,40,89.3,89.3S750.9,365.2,701.6,365.2z"/>
				<g>
					<polygon class="st2" points="754.1,284.6 693.3,284.6 693.3,223.4 699.4,223.4 699.4,278.5 754.1,278.5 					"/>
				</g>
			</g>
		</g>
	</g>
	<g>
		<g>
			<defs>
				<rect id="SVGID_13_" x="1.6" y="1" width="1400" height="980"/>
			</defs>
			<clipPath id="SVGID_14_">
				<use xlink:href="#SVGID_13_"  style="overflow:visible;"/>
			</clipPath>
			<rect x="778.3" y="830.9" class="st11" width="69" height="60"/>
		</g>
	</g>
	<g>
		<g>
			<defs>
				<rect id="SVGID_15_" x="1.6" y="1" width="1400" height="980"/>
			</defs>
			<clipPath id="SVGID_16_">
				<use xlink:href="#SVGID_15_"  style="overflow:visible;"/>
			</clipPath>
			<rect x="833.8" y="824.9" class="st12" width="69" height="60"/>
		</g>
	</g>
	<g>
		<g>
			<defs>
				
					<rect id="SVGID_17_" x="-146.4" y="-25.7" transform="matrix(0.9303 -0.3668 0.3668 0.9303 -131.7444 235.4307)" width="1400" height="980"/>
			</defs>
			<clipPath id="SVGID_18_">
				<use xlink:href="#SVGID_17_"  style="overflow:visible;"/>
			</clipPath>
			
				<rect x="522.9" y="830.8" transform="matrix(0.9824 -0.1867 0.1867 0.9824 -152.0674 119.3111)" class="st13" width="69" height="72.4"/>
		</g>
	</g>
	<g>
		<g>
			<defs>
				<rect id="SVGID_19_" x="1.6" y="1" width="1400" height="980"/>
			</defs>
			<clipPath id="SVGID_20_">
				<use xlink:href="#SVGID_19_"  style="overflow:visible;"/>
			</clipPath>
			<g class="st14">
				<path class="st3" d="M1041,954.1c-10.7-23.1-34.1-39.2-61.3-39.2s-50.6,16.1-61.3,39.2H1041z"/>
				<rect x="918.6" y="953.9" class="st4" width="123" height="15"/>
			</g>
		</g>
	</g>
	<g>
		<g>
			<defs>
				<rect id="SVGID_21_" x="1.6" y="1" width="1400" height="980"/>
			</defs>
			<clipPath id="SVGID_22_">
				<use xlink:href="#SVGID_21_"  style="overflow:visible;"/>
			</clipPath>
			<path class="st15" d="M1203.4,872.9c0-22.2-16.6-40.6-38-43.6v-19.4h-108v94.5c0,20.7,16.8,37.5,37.5,37.5h33
				c16.4,0,30.3-10.5,35.4-25.2C1185.7,914.8,1203.4,895.9,1203.4,872.9z M1165.3,906.4c0-0.7,0.1-1.3,0.1-2v-65
				c15.9,2.8,28,16.8,28,33.5C1193.4,889.7,1181.2,903.6,1165.3,906.4z"/>
		</g>
	</g>
	<g>
		<g>
			<defs>
				<rect id="SVGID_23_" x="1.6" y="1" width="1400" height="980"/>
			</defs>
			<clipPath id="SVGID_24_">
				<use xlink:href="#SVGID_23_"  style="overflow:visible;"/>
			</clipPath>
			<g class="st16">
				<g>
					
						<rect x="56.4" y="630.6" transform="matrix(0.9947 -0.1031 0.1031 0.9947 -79.0628 11.0747)" class="st2" width="22.4" height="279.5"/>
					<path class="st3" d="M42,632.5c0,0-29.5-17.7-13.7-48.8s18.6-21,27.4-53c0,0,44.3,76.7,8.6,99.5L42,632.5z"/>
				</g>
				<g>
					
						<rect x="46.2" y="750" transform="matrix(0.1113 -0.9938 0.9938 0.1113 -591.2348 861.2779)" class="st2" width="279.5" height="22.4"/>
					<path class="st3" d="M190.3,621c0,0-25.1-23.6-3-50.6s22.6-16.5,38.1-46c0,0,26.9,84.4-12.8,99L190.3,621z"/>
				</g>
				<g>
					
						<rect x="84.7" y="596.6" transform="matrix(0.998 -6.304758e-02 6.304758e-02 0.998 -47.2716 7.323)" class="st2" width="15.4" height="312.2"/>
					<path class="st4" d="M74.9,597.4c0,0-41-33.6,2.6-81.2c0,0,43.9,40.3,12.8,80.2L74.9,597.4z"/>
				</g>
				<g>
					<rect x="136.5" y="640.8" class="st2" width="13.1" height="274.2"/>
					<polygon class="st4" points="136.5,640.8 95,582.1 194.8,582.1 149.6,640.8 					"/>
				</g>
				<g>
					<rect x="115.6" y="629" class="st2" width="13.8" height="285.9"/>
					<path class="st3" d="M115.6,629c0,0-34.8-32.5,6.9-72.7c0,0,37,38.7,6.9,72.7H115.6z"/>
				</g>
				<g>
					
						<rect x="26.1" y="759" transform="matrix(0.1188 -0.9929 0.9929 0.1188 -611.5016 842.7172)" class="st2" width="285.9" height="13.8"/>
					<path class="st3" d="M179.3,623c0,0-30.7-36.4,15.5-71.3c0,0,32.2,42.8-1.8,73L179.3,623z"/>
				</g>
			</g>
		</g>
	</g>
	<g>
		<g>
			<defs>
				<rect id="SVGID_25_" x="1.6" y="1" width="1400" height="980"/>
			</defs>
			<clipPath id="SVGID_26_">
				<use xlink:href="#SVGID_25_"  style="overflow:visible;"/>
			</clipPath>
			<g class="st17">
				<path class="st4" d="M247.2,746.3v-17.9H9.2v17.9H19l34.7,173.6h152.4l11.5-69.1h0.2v-1.4L235,746.3H247.2L247.2,746.3z
					 M46.9,850.8h28.5v29H52.7L46.9,850.8z M127.4,746.3v23.5H82.2v-23.5H127.4z M127.4,776.6v31.6H82.2v-31.6H127.4z M127.4,815v29
					H82.2v-29H127.4z M75.4,808.2h-37l-6.3-31.6h43.3V808.2z M75.4,815v29H45.5l-5.8-29H75.4z M82.2,850.8h45.2v29H82.2V850.8z
					 M127.4,886.7v26.4H82.2v-26.4H127.4z M134.2,886.7h46.9v26.4h-46.9L134.2,886.7L134.2,886.7z M134.2,879.9v-29h46.9v29H134.2z
					 M134.2,844v-29h46.9v29H134.2z M188,815h28.7l-4.8,29H188V815z M188,808.2v-31.6h35.1l-5.3,31.6H188z M181.1,808.2h-46.9v-31.6
					h46.9V808.2z M134.2,769.8v-23.5h46.9v23.5H134.2z M75.4,746.3v23.5H30.6l-4.7-23.5H75.4z M54,886.7h21.3v26.4h-16L54,886.7z
					 M188,913.1v-26.4h16.8l-4.4,26.4H188z M205.9,879.9H188v-29h22.8L205.9,879.9z M224.2,769.8h-36.3v-23.5h40.2L224.2,769.8z"/>
				<rect x="1.6" y="727.9" class="st2" width="257.7" height="21"/>
			</g>
		</g>
	</g>
	<g>
		<g>
			<defs>
				<rect id="SVGID_27_" x="1.6" y="1" width="1400" height="980"/>
			</defs>
			<clipPath id="SVGID_28_">
				<use xlink:href="#SVGID_27_"  style="overflow:visible;"/>
			</clipPath>
			<g class="st18">
				<g>
					<path class="st3" d="M216.1,638.7l-0.3-9.2c0,0,0.8-1.9,2.5-0.8l5.1,7.4l-0.9,8.1L216.1,638.7z"/>
					<polygon class="st4" points="216.7,675 216.1,638.7 223.3,636.1 243.7,666.5 241.4,686.8 225.7,686 					"/>
					<path class="st3" d="M237.8,667.6c-0.7-0.4-10.3-6.5-15.1,4.9c-4.5-4.4-6,1.9-6,1.9L287.9,894l7.2,1.9l15-4.9
						c0,0.1,0.1,0.2,0.1,0.2l4.7-5.8l-71.2-219.6C243.7,665.9,238.9,661.7,237.8,667.6z"/>
				</g>
				<g>
					<path class="st2" d="M350.1,585.1l2.2-8.9c0,0,1.3-1.6,2.6-0.1l2.8,8.5l-3.1,7.6L350.1,585.1z"/>
					<polygon class="st4" points="340.6,620.1 350.1,585.1 357.7,584.6 368.8,619.5 361,638.4 346.1,633.2 					"/>
					<path class="st2" d="M362.9,618.9c-0.5-0.6-8.1-9.1-15.9,0.6c-3.1-5.5-6.3,0.2-6.3,0.2l7.5,230.8l6.4,3.8l15.8-0.5
						c0,0.1,0,0.2,0,0.2l6.1-4.2L369,619C369.1,618.9,365.6,613.5,362.9,618.9z"/>
				</g>
				<g>
					<path class="st2" d="M301.4,568.2l2.7-8.8c0,0,1.4-1.6,2.6,0l2.4,8.6l-3.5,7.4L301.4,568.2z"/>
					<polygon class="st4" points="290.2,602.7 301.4,568.2 309.1,568.1 318.4,603.5 309.6,622 295,616.1 					"/>
					<path class="st2" d="M312.5,602.6c-0.5-0.6-7.6-9.5-15.9-0.3c-2.8-5.7-6.3-0.1-6.3-0.1L286,833l6.2,4.1l15.8,0.3
						c0,0.1,0,0.2,0,0.2l6.3-3.9l4.3-230.8C318.7,602.9,315.5,597.4,312.5,602.6z"/>
				</g>
				<g>
					<path class="st3" d="M391.1,616.9l3.7-8.4c0,0,1.6-1.4,2.6,0.3l1.4,8.8l-4.3,6.9L391.1,616.9z"/>
					<polygon class="st4" points="376,649.9 391.1,616.9 398.8,617.6 404,653.9 393.2,671.2 379.3,663.7 					"/>
					<path class="st3" d="M398.3,652.3c-0.4-0.7-6.5-10.3-15.8-2.1c-2.2-6-6.2-0.8-6.2-0.8l-30.4,228.9l5.7,4.8l15.6,2.1
						c0,0.1,0,0.2,0,0.2l6.7-3.2l30.4-228.9C404.3,653.3,401.8,647.5,398.3,652.3z"/>
				</g>
				<g>
					<path class="st19" d="M346.5,958.9l8.7,3c0,0,1.5,1.4-0.1,2.6l-8.7,2l-7.2-3.8L346.5,958.9z"/>
					<polygon class="st20" points="312.4,946.4 346.5,958.9 346.3,966.6 310.6,974.5 292.4,965 298.9,950.7 					"/>
					<path class="st19" d="M311.7,968.7c0.6-0.5,9.8-7.2,0.9-15.9c5.8-2.6,0.4-6.3,0.4-6.3L82.4,933.3l-4.4,6l-0.9,15.8
						c-0.1,0-0.2,0-0.2,0l3.7,6.5l230.5,13.2C311.1,974.8,316.8,971.9,311.7,968.7z"/>
				</g>
				<g>
					<path class="st2" d="M245.4,590.8l0.9-9.1c0,0,1.1-1.8,2.5-0.5l4,8l-2,7.9L245.4,590.8z"/>
					<polygon class="st4" points="241,626.9 245.4,590.8 252.8,589.3 268.8,622.2 263.8,642 248.3,639.1 					"/>
					<path class="st2" d="M262.9,622.5c-0.6-0.5-9.3-7.8-15.6,2.8c-3.9-5-6.2,1.1-6.2,1.1l40.3,227.3l6.9,2.9l15.5-2.8
						c0,0.1,0,0.2,0,0.2l5.5-5.1L269,621.6C269,621.6,264.8,616.8,262.9,622.5z"/>
				</g>
				<g>
					<path class="st3" d="M328.8,644.9l2.5-8.8c0,0,1.4-1.6,2.6,0l2.5,8.6l-3.4,7.5L328.8,644.9z"/>
					<polygon class="st4" points="318.2,679.6 328.8,644.9 336.5,644.6 346.5,679.9 338,698.5 323.3,692.9 					"/>
					<path class="st3" d="M340.4,679.6c-0.5-0.6-7.8-9.3-15.9,0c-2.9-5.6-6.3,0-6.3,0v230.9l6.3,4h15.8c0,0.1,0,0.2,0,0.2l6.3-4
						V679.8C346.5,679.8,343.3,674.3,340.4,679.6z"/>
				</g>
				<g>
					<path class="st3" d="M281.5,621l0.8-9.1c0,0,1-1.8,2.5-0.5l4.1,7.9l-1.9,8L281.5,621z"/>
					<polygon class="st4" points="277.7,657.1 281.5,621 288.9,619.2 305.5,651.9 300.8,671.8 285.3,669.1 					"/>
					<path class="st3" d="M299.4,652.8c-0.6-0.5-9.4-7.7-15.6,3.1c-3.9-5-6.2,1.2-6.2,1.2l44.2,226.6l6.9,2.8l15.5-3
						c0,0.1,0,0.2,0,0.2l5.4-5.2l-44.2-226.6C305.5,651.8,301.3,647.1,299.4,652.8z"/>
				</g>
				<polygon class="st3" points="388.6,933 259.6,933 239,791.3 409.1,791.3 				"/>
				<rect x="232.6" y="779" class="st4" width="182.9" height="29.5"/>
				<g>
					<path class="st3" d="M580,922.1l8.8,2.5c0,0,1.6,1.4,0,2.6l-8.5,2.6l-7.5-3.3L580,922.1z"/>
					<polygon class="st20" points="545.2,911.6 580,922.1 580.3,929.7 545.1,939.8 526.4,931.4 532,916.7 					"/>
					<path class="st3" d="M545.3,933.7c0.6-0.5,9.3-7.8-0.1-15.9c5.6-2.9,0-6.3,0-6.3l-230.9,0.7l-4,6.3v15.8c-0.1,0-0.2,0-0.2,0
						l4.1,6.3l230.9-0.7C545.2,939.9,550.6,936.6,545.3,933.7z"/>
				</g>
			</g>
		</g>
	</g>
	<g>
		<g>
			<defs>
				<rect id="SVGID_29_" x="1.6" y="1" width="1400" height="980"/>
			</defs>
			<clipPath id="SVGID_30_">
				<use xlink:href="#SVGID_29_"  style="overflow:visible;"/>
			</clipPath>
			<g class="st21">
				<rect x="673.9" y="-11.9" class="st2" width="55.5" height="45"/>
				<polygon class="st2" points="868.1,153 535.1,153 675.1,21 728.1,21 				"/>
			</g>
		</g>
	</g>
	<g>
		<g>
			<g>
				<defs>
					<rect id="SVGID_31_" x="1.6" y="1" width="1400" height="980"/>
				</defs>
				<clipPath id="SVGID_32_">
					<use xlink:href="#SVGID_31_"  style="overflow:visible;"/>
				</clipPath>
			</g>
			<g>
				<defs>
					<rect id="SVGID_33_" x="1.6" y="1" width="1400" height="980"/>
				</defs>
				<defs>
					<polygon id="SVGID_34_" points="2.6,2 3.6,2 2.6,3 					"/>
				</defs>
				<clipPath id="SVGID_35_">
					<use xlink:href="#SVGID_33_"  style="overflow:visible;"/>
				</clipPath>
				<clipPath id="SVGID_36_" class="st22">
					<use xlink:href="#SVGID_34_"  style="overflow:visible;"/>
				</clipPath>
			</g>
			<g>
				<defs>
					<rect id="SVGID_37_" x="1.6" y="1" width="1400" height="980"/>
				</defs>
				<defs>
					<polygon id="SVGID_38_" points="2.6,2 3.6,2 2.6,3 					"/>
				</defs>
				<defs>
					<polygon id="SVGID_39_" points="0.6,0 -0.4,0 0.6,-1 					"/>
				</defs>
				<clipPath id="SVGID_40_">
					<use xlink:href="#SVGID_37_"  style="overflow:visible;"/>
				</clipPath>
				<clipPath id="SVGID_41_" class="st23">
					<use xlink:href="#SVGID_38_"  style="overflow:visible;"/>
				</clipPath>
				<clipPath id="SVGID_42_" class="st24">
					<use xlink:href="#SVGID_39_"  style="overflow:visible;"/>
				</clipPath>
				
					<linearGradient id="SVGID_43_" gradientUnits="userSpaceOnUse" x1="688.3" y1="-66.3982" x2="688.3" y2="358.4174" gradientTransform="matrix(1 0 0 1 0 130)">
					<stop  offset="0" style="stop-color:#FFFFFF"/>
					<stop  offset="1" style="stop-color:#000000"/>
				</linearGradient>
				<polygon class="st25" points="94.2,686 535.1,153 868.1,153 1282.4,683.9 				"/>
			</g>
		</g>
	</g>
	<g class="st26">
		<g class="st27">
			<defs>
				<rect id="SVGID_44_" x="1.6" y="1" width="1400" height="980"/>
			</defs>
			<clipPath id="SVGID_45_">
				<use xlink:href="#SVGID_44_"  style="overflow:visible;"/>
			</clipPath>
			
				<linearGradient id="SVGID_46_" gradientUnits="userSpaceOnUse" x1="688.3" y1="-66.3982" x2="688.3" y2="358.4174" gradientTransform="matrix(1 0 0 1 0 130)">
				<stop  offset="0" style="stop-color:#FFF8A6"/>
				<stop  offset="1" style="stop-color:#F4F4F4;stop-opacity:0"/>
			</linearGradient>
			<polygon class="st28" points="94.2,686 535.1,153 868.1,153 1282.4,683.9 			"/>
		</g>
	</g>
</g>
</svg>
